<mxfile host="65bd71144e">
    <diagram id="-YihvkP-rhNUMyuaf8Na" name="Star Schema">
        <mxGraphModel dx="946" dy="710" grid="1" gridSize="10" guides="1" tooltips="1" connect="1" arrows="1" fold="1" page="1" pageScale="1" pageWidth="850" pageHeight="1100" math="0" shadow="0">
            <root>
                <mxCell id="0"/>
                <mxCell id="1" parent="0"/>
                <mxCell id="2" value="fact_sales&#xa;------------------&#xa;sale_id (PK)&#xa;partner_id (FK)&#xa;product_code&#xa;date_id (FK)&#xa;city_id (FK)&#xa;client_id (FK)&#xa;sold_qty&#xa;purchase_price" style="shape=swimlane;whiteSpace=wrap;html=1;" vertex="1" parent="1">
                    <mxGeometry x="310" y="190" width="220" height="180" as="geometry"/>
                </mxCell>
                <mxCell id="3" value="dim_partner&#xa;--------------------&#xa;partner_id (PK)&#xa;partner_name" style="shape=swimlane;whiteSpace=wrap;html=1;" vertex="1" parent="1">
                    <mxGeometry x="30" y="50" width="180" height="100" as="geometry"/>
                </mxCell>
                <mxCell id="4" style="endArrow=block;html=1;strokeColor=#000000;" edge="1" parent="1" source="2" target="3">
                    <mxGeometry relative="1" as="geometry"/>
                </mxCell>
                <mxCell id="5" value="dim_date&#xa;--------------------&#xa;date_id (PK)&#xa;full_date_time&#xa;year&#xa;month&#xa;day&#xa;hour" style="shape=swimlane;whiteSpace=wrap;html=1;" vertex="1" parent="1">
                    <mxGeometry x="290" y="430" width="180" height="140" as="geometry"/>
                </mxCell>
                <mxCell id="6" style="endArrow=block;html=1;strokeColor=#000000;" edge="1" parent="1" source="2" target="5">
                    <mxGeometry relative="1" as="geometry"/>
                </mxCell>
                <mxCell id="7" value="dim_city&#xa;--------------------&#xa;city_id (PK)&#xa;city_name" style="shape=swimlane;whiteSpace=wrap;html=1;" vertex="1" parent="1">
                    <mxGeometry x="550" y="70" width="160" height="100" as="geometry"/>
                </mxCell>
                <mxCell id="8" style="endArrow=block;html=1;strokeColor=#000000;" edge="1" parent="1" source="2" target="7">
                    <mxGeometry relative="1" as="geometry"/>
                </mxCell>
                <mxCell id="9" value="dim_client&#xa;--------------------&#xa;client_id (PK)&#xa;client_name&#xa;client_city_id (FK)&#xa;client_category" style="shape=swimlane;whiteSpace=wrap;html=1;" vertex="1" parent="1">
                    <mxGeometry x="570" y="330" width="200" height="120" as="geometry"/>
                </mxCell>
                <mxCell id="10" style="endArrow=block;html=1;strokeColor=#000000;" edge="1" parent="1" source="2" target="9">
                    <mxGeometry relative="1" as="geometry"/>
                </mxCell>
                <mxCell id="11" style="endArrow=open;dashed=1;html=1;strokeColor=#888888;" edge="1" parent="1" source="9" target="7">
                    <mxGeometry relative="1" as="geometry">
                        <mxPoint x="680" y="180" as="targetPoint"/>
                    </mxGeometry>
                </mxCell>
            </root>
        </mxGraphModel>
    </diagram>
</mxfile>